<svg xmlns="http://www.w3.org/2000/svg" viewBox="0 0 2852.76 704.86"><defs><style>.cls-1{font-size:616.75px;font-family:nevis-Bold, nevis;font-weight:700;}</style></defs><g id="Layer_2" data-name="Layer 2"><g id="Layer_1-2" data-name="Layer 1"><path d="M165.06,239,294.85,368.77a20.54,20.54,0,0,1,0,29.06L164.47,528.22a20.57,20.57,0,0,1-29.07,0L6,398.83a20.55,20.55,0,0,1,0-29L136,239A20.56,20.56,0,0,1,165.06,239Z"/><path d="M287.75,222.47l130.3,130.29a21.72,21.72,0,0,1,0,30.7L271,530.56a21.7,21.7,0,0,0,0,30.7L408.2,698.51a21.72,21.72,0,0,0,30.7,0L746,391.41a21.7,21.7,0,0,0,0-30.7L451.32,66.05a21.71,21.71,0,0,0-30.27-.42L288.18,191.35A21.7,21.7,0,0,0,287.75,222.47Z"/><text class="cls-1" transform="translate(954.64 534.23)">evolve</text></g></g></svg>